<svg width="50" height="50" viewBox="0 0 50 50" fill="none" xmlns="http://www.w3.org/2000/svg">
<path fill-rule="evenodd" clip-rule="evenodd" d="M48.5294 8.7107C48.5294 4.36659 44.9094 1.4707 40.5659 1.4707H9.4347C5.09058 1.4707 1.47058 4.36659 1.47058 8.7107V41.2901C1.47058 45.6336 5.09058 48.5295 9.4347 48.5295H40.5659C44.9094 48.5295 48.5294 45.6336 48.5294 41.2895V8.7107Z" fill="url(#paint0_linear_37_94)"/>
<path fill-rule="evenodd" clip-rule="evenodd" d="M24.6694 21.6265C25.8847 21.6265 26.8059 21.3595 27.4336 20.8253C28.0612 20.2912 28.3747 19.5036 28.3747 18.4618C28.3747 17.4336 28.0612 16.6524 27.4336 16.1183C26.8059 15.5706 25.8847 15.2971 24.6694 15.2971H20.4036V21.6259L24.6694 21.6265ZM24.93 34.7048C26.4789 34.7048 27.6406 34.3777 28.4153 33.7236C29.203 33.0695 29.5971 32.0812 29.5971 30.7595C29.5971 29.4642 29.21 28.4965 28.4353 27.8553C27.6606 27.2012 26.4924 26.8742 24.93 26.8742H20.4036V34.7053L24.93 34.7048ZM32.1006 23.9501C33.7565 24.4306 35.0383 25.3189 35.9459 26.6136C36.8536 27.9083 37.3077 29.4977 37.3077 31.3806C37.3077 34.2648 36.333 36.4148 34.3836 37.8301C32.4341 39.2453 29.47 39.953 25.4906 39.953H12.6924V10.05H24.2689C28.4212 10.05 31.4259 10.6777 33.2818 11.933C35.1512 13.1883 36.0859 15.1977 36.0859 17.9618C36.0859 19.4171 35.7453 20.6589 35.0647 21.6871C34.3836 22.7018 33.3953 23.4559 32.1006 23.9501Z" fill="white"/>
<defs>
<linearGradient id="paint0_linear_37_94" x1="1.47058" y1="4707.35" x2="4707.35" y2="1.4707" gradientUnits="userSpaceOnUse">
<stop stop-color="#070135"/>
<stop offset="1" stop-color="#612D50"/>
</linearGradient>
</defs>
</svg>
