<svg width="72" height="72" viewBox="0 0 72 72" fill="none" xmlns="http://www.w3.org/2000/svg">
<path d="M36 7.19995C20.0952 7.19995 7.19995 20.0952 7.19995 36C7.19995 49.4952 16.4928 60.7872 29.0208 63.912C28.8864 63.5232 28.8 63.072 28.8 62.5128V57.5904C27.6312 57.5904 25.6728 57.5904 25.1808 57.5904C23.2104 57.5904 21.4584 56.7432 20.6088 55.1688C19.6656 53.4192 19.5024 50.7432 17.1648 49.1064C16.4712 48.5616 16.9992 47.94 17.7984 48.024C19.2744 48.4416 20.4984 49.4544 21.6504 50.9568C22.7976 52.4616 23.3376 52.8024 25.4808 52.8024C26.52 52.8024 28.0752 52.7424 29.5392 52.512C30.3264 50.5128 31.6872 48.672 33.3504 47.8032C23.76 46.8167 19.1832 42.0456 19.1832 35.568C19.1832 32.7792 20.3712 30.0816 22.3896 27.8088C21.7272 25.5528 20.8944 20.952 22.644 19.2C26.9592 19.2 29.568 21.9984 30.1944 22.7544C32.3448 22.0176 34.7064 21.6 37.188 21.6C39.6744 21.6 42.0456 22.0176 44.2008 22.7592C44.82 22.008 47.4312 19.2 51.756 19.2C53.5128 20.9544 52.6704 25.5744 52.0008 27.8256C54.0072 30.0936 55.188 32.784 55.188 35.568C55.188 42.0408 50.6184 46.8096 41.0424 47.8008C43.6776 49.176 45.6 53.04 45.6 55.9512V62.5128C45.6 62.7624 45.5448 62.9424 45.516 63.156C56.7384 59.2224 64.8 48.5664 64.8 36C64.8 20.0952 51.9048 7.19995 36 7.19995Z" fill="#717171"/>
</svg>
