<svg width="80" height="80" viewBox="0 0 80 80" fill="none" xmlns="http://www.w3.org/2000/svg">
<g clip-path="url(#clip0_37_40)">
<path d="M78.55 2.55011C78.1937 2.19883 77.6815 2 77.147 2H2.90174C2.36728 2 1.85509 2.19883 1.49879 2.55011C1.13506 2.90138 0.956903 3.37195 1.00887 3.84915L7.69703 70.7434C7.76384 71.4459 8.31314 72.0292 9.07029 72.228L39.4974 79.9825C39.6607 80.0289 39.8388 80.0488 40.017 80.0488C40.1951 80.0488 40.3659 80.0289 40.5366 79.9825L70.9859 72.228C71.7431 72.0292 72.2849 71.4459 72.3592 70.7434L79.0399 3.84915C79.0919 3.37195 78.9137 2.90138 78.55 2.55011ZM62.5385 25.6148H26.7891L27.6428 34.2508H61.6774L59.1239 59.7744L40.0095 64.9308L39.824 64.8778L20.9323 59.7678L19.9005 49.3688H29.1571L29.5579 53.4051L40.1209 55.3802L50.4909 53.4051L51.5969 42.4825H19.2102L16.6938 17.3632H63.3624L62.5385 25.6148Z" fill="#E44D26"/>
</g>
<defs>
<clipPath id="clip0_37_40">
<rect width="80" height="80" fill="white"/>
</clipPath>
</defs>
</svg>
