<svg width="81" height="81" viewBox="0 0 81 81" fill="none" xmlns="http://www.w3.org/2000/svg">
<path fill-rule="evenodd" clip-rule="evenodd" d="M0.5 0.5H80.5V80.5H0.5V0.5Z" fill="#F7DF1E"/>
<path fill-rule="evenodd" clip-rule="evenodd" d="M36.5 63.5V37.5H43.5V63.5C43.5 73.5 29.5 79.5 21.5 67.5L27.5 63.5C30.5 69.5 36.5 67.5 36.5 63.5ZM66.5 46.5C62.5 41 57.5 43.5 57.5 47C57.5 52.5 74 51.5 74 63.5C73.5 77.5 54 77 48 66.5L54 63C58.5 70 66.5 67.5 66.5 63.5C66 56.5 50.5 60 50.5 47C50 37 65 31.5 72 43L66.5 46.5Z" fill="#323232"/>
</svg>
