<svg width="90" height="35" viewBox="0 0 90 35" fill="none" xmlns="http://www.w3.org/2000/svg">
<path fill-rule="evenodd" clip-rule="evenodd" d="M2.64697 1.0293H87.3527V29.2644H44.9998V33.9705H26.1761V29.2644H2.64697V1.0293ZM7.35289 24.5588H16.7647V10.441H21.4706V24.5588H26.1766V5.73536H7.35289V24.5588ZM30.8821 5.73536V29.2648H40.2939V24.5588H49.7057V5.73536H30.8821ZM40.2939 10.4414H44.9998V19.8531H40.2939V10.4414ZM54.4117 5.73577V24.5592H63.8235V10.441H68.5294V24.5588H73.2353V10.441H77.9412V24.5588H82.6472V5.73536H54.4121L54.4117 5.73577Z" fill="#CB3837"/>
<path fill-rule="evenodd" clip-rule="evenodd" d="M7.35291 24.5588H16.7647V10.4414H21.4707V24.5592H26.1766V5.73535H7.35291V24.5588ZM30.8821 5.73535V29.2648H40.2939V24.5588H49.7058V5.73535H30.8821ZM44.9998 19.8531H40.2939V10.4414H44.9998V19.8531ZM54.4117 5.73535V24.5588H63.8235V10.4414H68.5294V24.5592H73.2353V10.4414H77.9413V24.5592H82.6472V5.73535H54.4117Z" fill="white"/>
</svg>
