<svg width="69" height="69" viewBox="0 0 69 69" fill="none" xmlns="http://www.w3.org/2000/svg">
<path fill-rule="evenodd" clip-rule="evenodd" d="M34.2662 2.0293C17.7801 2.0293 18.8094 9.21585 18.8094 9.21585L18.8281 16.6614H34.5609V18.897H12.5791C12.5791 18.897 2.02942 17.6947 2.02942 34.4155C2.02942 51.1362 11.2373 50.5444 11.2373 50.5444H16.7329V42.7848C16.7329 42.7848 16.4366 33.529 25.7938 33.529H41.3976C41.3976 33.529 50.1638 33.6711 50.1638 25.012V10.6941C50.1638 10.6941 51.4951 2.0293 34.2662 2.0293ZM25.5909 7.03626C26.3418 7.03545 27.0618 7.33499 27.5927 7.86913C28.1256 8.40328 28.4249 9.12699 28.4249 9.8815C28.4249 10.636 28.1256 11.3597 27.5927 11.8939C27.0618 12.4272 26.3418 12.7267 25.5909 12.7267C24.84 12.7267 24.12 12.428 23.5891 11.8939C23.0562 11.3597 22.7569 10.636 22.7569 9.8815C22.7569 9.12699 23.0562 8.40328 23.5891 7.86913C24.12 7.3358 24.84 7.03626 25.5909 7.03626Z" fill="url(#paint0_linear_37_101)"/>
<path fill-rule="evenodd" clip-rule="evenodd" d="M34.7346 66.9703C51.2207 66.9703 50.1914 59.7838 50.1914 59.7838L50.1727 52.3383H34.4399V50.1027H56.4209C56.4209 50.1027 66.9706 51.3057 66.9706 34.5842C66.9706 17.8626 57.7627 18.4552 57.7627 18.4552H52.2671V26.2149C52.2671 26.2149 52.5634 35.4706 43.2062 35.4706H27.6033C27.6033 35.4706 18.8362 35.3286 18.8362 43.9877V58.3056C18.8362 58.3056 17.5057 66.9703 34.7346 66.9703ZM43.4091 61.9634C42.6582 61.9642 41.9382 61.6647 41.4073 61.1305C40.8744 60.5964 40.5752 59.8727 40.5752 59.1182C40.5752 58.3636 40.8744 57.6399 41.4073 57.1058C41.9382 56.5725 42.6582 56.2729 43.4091 56.2729C44.16 56.2729 44.88 56.5716 45.4109 57.1058C45.9438 57.6399 46.2431 58.3636 46.2431 59.1182C46.2431 59.8727 45.9438 60.5964 45.4109 61.1305C44.88 61.6638 44.16 61.9634 43.4091 61.9634Z" fill="url(#paint1_linear_37_101)"/>
<defs>
<linearGradient id="paint0_linear_37_101" x1="2506.26" y1="2.0293" x2="2310.74" y2="4853.68" gradientUnits="userSpaceOnUse">
<stop stop-color="#387EB8"/>
<stop offset="1" stop-color="#366994"/>
</linearGradient>
<linearGradient id="paint1_linear_37_101" x1="2426.72" y1="18.4526" x2="2426.72" y2="4870.22" gradientUnits="userSpaceOnUse">
<stop stop-color="#FFE052"/>
<stop offset="1" stop-color="#FFC331"/>
</linearGradient>
</defs>
</svg>
