<svg width="70" height="70" viewBox="0 0 70 70" fill="none" xmlns="http://www.w3.org/2000/svg">
<path d="M34.9482 40.4681C37.9905 40.4681 40.4567 38.0018 40.4567 34.9595C40.4567 31.9172 37.9905 29.4509 34.9482 29.4509C31.9059 29.4509 29.4396 31.9172 29.4396 34.9595C29.4396 38.0018 31.9059 40.4681 34.9482 40.4681Z" fill="#00D8FF"/>
<path fill-rule="evenodd" clip-rule="evenodd" d="M4.25525 35C4.25525 28.0041 17.9678 22.3728 35.0001 22.3728C52.0323 22.3728 65.7457 28.0049 65.7457 35C65.7457 41.995 52.0331 47.628 35.0001 47.628C17.967 47.628 4.25525 41.9959 4.25525 35ZM7.00007 35C7.00007 29.5252 19.4881 25.1176 35.0001 25.1176C50.5121 25.1176 63.0001 29.5252 63.0001 35C63.0001 40.4748 50.5121 44.8823 35.0001 44.8823C19.4881 44.8823 7.00007 40.4748 7.00007 35Z" fill="#00D8FF"/>
<path fill-rule="evenodd" clip-rule="evenodd" d="M19.6289 8.37438C25.6876 4.87685 37.4204 13.9357 45.9373 28.6867C54.4543 43.4378 56.4324 58.1287 50.3745 61.6263C44.3166 65.1238 32.583 56.065 24.0661 41.3139C15.5491 26.5629 13.571 11.8719 19.6289 8.37438ZM21.0017 10.7519C25.7428 8.0145 35.8038 16.6253 43.5598 30.0587C51.3158 43.4921 53.7428 56.5113 49.0017 59.2487C44.2606 61.9861 34.1988 53.3753 26.4428 39.9411C18.6868 26.5069 16.2598 13.4893 21.0017 10.7519Z" fill="#00D8FF"/>
<path fill-rule="evenodd" clip-rule="evenodd" d="M50.3745 8.37527C56.4332 11.8728 54.4543 26.5646 45.9373 41.3148C37.4204 56.065 25.6876 65.1255 19.6289 61.628C13.5702 58.1304 15.5491 43.4387 24.066 28.6884C32.583 13.9382 44.3158 4.87774 50.3745 8.37527ZM49.0017 10.7528C53.7428 13.4902 51.3158 26.5086 43.5598 39.9428C35.8038 53.377 25.7428 61.9879 21.0017 59.2504C16.2606 56.513 18.6876 43.4947 26.4436 30.0604C34.1996 16.6262 44.2606 8.01539 49.0017 10.7528Z" fill="#00D8FF"/>
</svg>
