<svg width="64" height="64" viewBox="0 0 64 64" fill="none" xmlns="http://www.w3.org/2000/svg">
<path d="M42.881 42.106C45.058 41.881 46.71 40.004 46.635 37.751C46.5922 36.6636 46.1309 35.6348 45.3476 34.8793C44.5642 34.1239 43.5193 33.7003 42.431 33.697H42.281C39.953 33.772 38.151 35.724 38.227 38.052C38.302 39.178 38.752 40.154 39.428 40.83C36.875 45.861 32.971 49.54 27.115 52.618C23.136 54.72 19.006 55.471 14.877 54.946C11.498 54.495 8.871 52.994 7.219 50.516C4.817 46.837 4.591 42.858 6.619 38.878C8.046 36.025 10.298 33.922 11.724 32.871C11.424 31.895 10.973 30.243 10.748 29.042C-0.140003 36.925 0.985996 47.587 4.29 52.618C6.768 56.372 11.798 58.7 17.354 58.7C18.856 58.7 20.357 58.55 21.859 58.175C31.469 56.298 38.752 50.59 42.881 42.106ZM56.095 32.796C50.389 26.113 41.98 22.434 32.37 22.434H31.169C30.493 21.083 29.067 20.181 27.49 20.181H27.34C25.013 20.256 23.211 22.208 23.286 24.536C23.3288 25.6235 23.7901 26.6523 24.5734 27.4077C25.3568 28.1632 26.4017 28.5868 27.49 28.59H27.64C28.4307 28.5514 29.1947 28.2916 29.845 27.8403C30.4954 27.389 31.0061 26.7642 31.319 26.037H32.67C38.376 26.037 43.782 27.689 48.662 30.917C52.416 33.395 55.119 36.623 56.62 40.528C57.896 43.682 57.821 46.76 56.47 49.388C54.368 53.367 50.839 55.545 46.184 55.545C43.181 55.545 40.328 54.644 38.826 53.968C38 54.719 36.498 55.92 35.447 56.671C38.676 58.174 41.98 59 45.133 59C52.341 59 57.671 55.02 59.699 51.041C61.876 46.686 61.726 39.178 56.095 32.796ZM17.954 43.382C17.9968 44.4695 18.458 45.4983 19.2414 46.2537C20.0248 47.0092 21.0697 47.4328 22.158 47.436H22.308C24.636 47.361 26.437 45.409 26.362 43.081C26.3192 41.9936 25.8579 40.9648 25.0746 40.2093C24.2912 39.4539 23.2463 39.0303 22.158 39.027H22.008C21.858 39.027 21.632 39.027 21.483 39.102C18.405 33.996 17.128 28.441 17.579 22.434C17.879 17.929 19.381 14.025 22.009 10.796C24.186 8.01804 28.391 6.66604 31.244 6.59204C39.202 6.44204 42.581 16.353 42.806 20.332C43.782 20.557 45.434 21.083 46.56 21.458C45.659 9.29504 38.151 2.98804 30.943 2.98804C24.186 2.98804 17.954 7.86804 15.476 15.076C12.022 24.687 14.275 33.922 18.479 41.205C18.104 41.73 17.878 42.556 17.954 43.382Z" fill="#764ABC"/>
</svg>
