<svg width="80" height="40" viewBox="0 0 80 40" fill="none" xmlns="http://www.w3.org/2000/svg">
<path fill-rule="evenodd" clip-rule="evenodd" d="M67.1871 22.8183C64.5603 22.8277 62.2775 23.2494 60.366 23.8729C59.6648 22.9468 58.9631 22.1214 58.8394 21.5167C58.702 20.8108 58.5368 20.3797 58.702 19.536C58.8671 18.6922 59.6097 17.4913 59.5961 17.3995C59.5824 17.3077 59.4309 16.8767 57.9184 16.8677C56.406 16.8588 55.0991 17.0602 54.9481 17.3261C54.797 17.592 54.5081 18.1972 54.3156 18.8207C54.0544 19.7374 51.2902 23.0108 49.7086 24.7256C49.1999 24.0564 48.7599 23.4696 48.6634 23.0019C48.526 22.296 48.3608 21.8649 48.526 21.0212C48.6911 20.1774 49.4337 18.9764 49.4201 18.8847C49.4064 18.7929 49.2549 18.3619 47.7424 18.3529C46.23 18.344 44.9231 18.5454 44.7721 18.8113C44.621 19.0772 44.4559 19.7007 44.1396 20.3059C43.8234 20.911 40.1514 26.376 39.1886 27.7877C38.6935 28.512 38.2671 29.0899 37.9646 29.4842C37.9646 29.4842 37.9509 29.5115 37.9095 29.5576L37.4968 30.0804C37.2907 30.3374 37.0704 30.5666 36.9603 30.5666C36.878 30.5666 36.7264 29.9063 36.9876 29.008C37.5377 27.1101 38.8441 24.1576 38.8304 24.0564C38.8304 24.0014 39.078 23.488 37.9777 23.2221C36.9053 22.9562 36.5199 23.3962 36.4239 23.3962C36.3279 23.3962 36.2587 23.552 36.2587 23.552C36.2587 23.552 37.4549 20.2329 33.9759 20.2329C31.8031 20.2329 28.805 21.8193 27.3194 23.2494L22.2582 25.0922L19.8239 25.9816C19.7688 25.9449 19.7137 25.8993 19.6587 25.8626C15.4502 22.8644 7.6662 20.7459 7.99656 16.7209C8.12032 15.2541 8.87656 11.4028 22.9457 6.72656C34.5255 2.92138 43.7401 3.97597 45.3354 6.31386C47.6182 9.65127 40.398 15.8499 28.4333 16.7487C23.8676 17.088 21.4742 15.9143 20.8695 15.4743C20.237 15.016 20.1406 14.9882 19.9067 15.08C19.5217 15.2174 19.7693 15.6301 19.9067 15.8687C20.2643 16.4922 21.7359 17.5924 24.2253 18.1336C26.4257 18.6103 31.7754 18.8762 38.253 17.2075C45.5006 15.3369 51.1669 10.1379 49.5029 5.78256C47.837 1.36233 36.8347 -0.0955564 26.4239 2.3708C20.2351 3.83809 13.5236 6.14868 8.69632 9.15621C2.96173 12.7322 2.05397 15.8404 2.42526 17.1426C3.75938 21.7637 13.3175 24.7713 17.1406 26.9995L16.6182 27.192C14.7067 27.8244 7.41773 30.3647 5.6022 33.0513C3.53914 36.0955 5.93209 38.2776 7.51373 38.5713C12.4234 39.479 17.4709 37.847 20.1801 35.151C22.8893 32.455 22.5594 28.9524 21.3076 27.3482C21.2929 27.3265 21.2742 27.3079 21.2526 27.2932L22.7514 26.7063C23.7279 26.3214 24.6907 25.9637 25.5156 25.6701C25.0479 26.5228 24.7043 27.5407 24.5391 29.0075C24.333 30.7313 25.3919 32.9684 26.781 33.8489C27.3999 34.2339 28.1288 34.2433 28.5966 34.2433C30.2196 34.2433 30.9486 33.3449 31.7599 32.2809C32.75 30.9788 33.6441 29.4659 33.6441 29.4659C33.6441 29.4659 32.5302 33.5553 35.5556 33.5553C36.6559 33.5553 37.7697 32.6019 38.2648 32.1157C38.2648 32.1247 38.2921 32.0974 38.3471 32.0334L38.526 31.8409V31.8226C38.966 31.3092 39.9561 30.1444 41.4276 28.2099C43.3255 25.7157 45.1547 22.5981 45.1547 22.5981C45.1547 22.5981 45.3199 23.359 45.8836 24.6244C46.2135 25.367 46.9015 26.183 47.4516 26.9717C47.0116 27.3844 46.7363 27.6136 46.7363 27.6136L46.75 27.623C46.3923 27.935 46.0074 28.2739 45.581 28.6042C44.0822 29.7962 42.294 31.1623 42.0464 31.5567C41.7575 32.0244 41.8262 32.3637 42.3763 32.6386C42.7749 32.8404 43.4902 32.8677 44.2191 32.8404C45.5669 32.7764 46.5156 32.5562 46.9834 32.4188C47.7123 32.2447 48.565 31.9788 49.3627 31.5844C50.8342 30.8602 51.7283 29.824 51.6455 28.4579C51.6041 27.7059 51.2328 26.9543 50.7791 26.248C50.9166 26.1195 51.0403 25.9915 51.1777 25.863C53.502 23.5981 55.3034 21.1134 55.3034 21.1134C55.3034 21.1134 55.4686 21.8743 56.0323 23.1397C56.3076 23.7816 56.8714 24.4786 57.3664 25.1572C55.1796 26.3397 53.8319 27.7153 53.3504 28.6141C52.4841 30.2828 53.158 31.0348 54.437 31.2089C55.0144 31.2913 55.8399 31.1082 56.445 30.9336C57.2154 30.7684 58.1227 30.4842 58.9895 30.0626C60.461 29.3383 61.8775 28.3294 61.7951 26.9633C61.7537 26.3397 61.5062 25.7256 61.1627 25.1294C63.0191 24.616 65.4126 24.3317 68.4653 24.5699C75.0116 25.0833 76.3043 27.8066 76.0568 28.9529C75.8093 30.0993 74.4342 30.7228 73.9801 30.9153C73.526 31.1077 73.3749 31.1722 73.4163 31.3096C73.4714 31.5115 73.6911 31.5021 74.0766 31.4654C74.613 31.4014 77.5147 30.5393 77.6384 28.4306C77.8446 25.735 73.9937 22.7915 67.1862 22.8188L67.1871 22.8183ZM16.6869 34.1699C14.5137 35.7468 11.4883 36.343 10.182 35.8386C8.77914 35.2974 9.32926 32.9684 11.9975 31.2997C13.6201 30.2819 15.7109 29.3374 17.0996 28.76L18.4474 28.2188C18.5439 28.1821 18.5984 28.1637 18.5984 28.1637L18.9283 28.0263C19.9048 30.4103 18.9702 32.5101 16.6869 34.1699ZM32.5024 26.9995C31.7462 28.2282 30.1646 31.3732 29.2017 31.199C28.3768 31.0522 27.8676 28.6682 29.0366 26.312C29.6281 25.1289 30.8794 23.7172 31.6083 23.167C32.7909 22.287 34.0977 21.9934 34.414 22.351C34.8126 22.8188 32.9697 26.2292 32.5024 26.9995ZM45.5537 31.1623C45.2375 31.2724 44.9349 31.3459 44.7975 31.2908C44.7015 31.2541 44.9349 31.1073 44.9349 31.1073C44.9349 31.1073 46.5716 29.9336 47.2177 29.4019L48.4968 28.3106V28.4296C48.4968 29.8324 46.4615 30.7774 45.5537 31.1623ZM55.6206 29.631C55.3867 29.5209 55.4281 29.1543 56.2121 28.008C56.5147 27.5586 57.23 26.8066 58.454 26.0823C58.5914 26.376 58.6879 26.6597 58.6742 26.9261C58.6606 28.6955 56.7622 29.3557 55.6206 29.631Z" fill="#CD6799"/>
</svg>
